<svg width="1024" height="1024" viewBox="0 0 1024 1024" xmlns="http://www.w3.org/2000/svg">
<defs>
  <linearGradient id="bg" x1="0" y1="0" x2="1" y2="1">
    <stop offset="0" stop-color="#262E44"/>
    <stop offset="0.55" stop-color="#161924"/>
    <stop offset="1" stop-color="#0C0E15"/>
  </linearGradient>
  <radialGradient id="glowbg" cx="0.68" cy="0.32" r="0.8">
    <stop offset="0" stop-color="#33CC7A" stop-opacity="0.14"/>
    <stop offset="0.55" stop-color="#33CC7A" stop-opacity="0.04"/>
    <stop offset="1" stop-color="#33CC7A" stop-opacity="0"/>
  </radialGradient>
  <linearGradient id="comet" gradientUnits="userSpaceOnUse"
      x1="647" y1="814" x2="792" y2="337">
    <stop offset="0" stop-color="#1C523A" stop-opacity="0"/>
    <stop offset="0.30" stop-color="#26A062" stop-opacity="0.45"/>
    <stop offset="0.65" stop-color="#33CC7A" stop-opacity="0.85"/>
    <stop offset="1" stop-color="#94F4BD" stop-opacity="1"/>
  </linearGradient>
  <radialGradient id="star" cx="0.5" cy="0.5" r="0.5">
    <stop offset="0" stop-color="#FFFFFF"/>
    <stop offset="0.42" stop-color="#D9FFE9"/>
    <stop offset="1" stop-color="#33CC7A"/>
  </radialGradient>
  <filter id="bigGlow" x="-80%" y="-80%" width="260%" height="260%"><feGaussianBlur stdDeviation="71.68"/></filter>
  <filter id="midGlow" x="-80%" y="-80%" width="260%" height="260%"><feGaussianBlur stdDeviation="22.528"/></filter>
</defs>
<rect width="1024" height="1024" fill="url(#bg)"/><rect width="1024" height="1024" fill="url(#glowbg)"/>
<circle cx="512.0" cy="512.0" r="331" stroke="#33CC7A" stroke-width="8.192" fill="none" opacity="0.10"/>
<circle cx="792" cy="337" r="133.12" fill="#33CC7A" opacity="0.30" filter="url(#bigGlow)"/>
<path d="M 647.78 816.96 L 641.42 819.74 L 635.01 822.39 L 628.55 824.92 L 622.03 827.33 L 615.47 829.60 L 608.87 831.73 L 602.22 833.74 L 595.53 835.61 L 588.80 837.34 L 582.04 838.94 L 575.24 840.40 L 568.41 841.72 L 561.56 842.90 L 554.68 843.95 L 547.78 844.85 L 540.87 845.61 L 533.93 846.23 L 526.99 846.70 L 520.03 847.04 L 513.06 847.23 L 506.09 847.28 L 499.12 847.19 L 492.15 846.95 L 485.19 846.57 L 478.23 846.05 L 471.28 845.38 L 464.34 844.57 L 457.42 843.62 L 450.52 842.53 L 443.64 841.29 L 436.79 839.91 L 429.96 838.39 L 423.16 836.73 L 416.40 834.93 L 409.67 832.99 L 402.98 830.91 L 396.33 828.70 L 389.73 826.34 L 383.17 823.85 L 376.67 821.23 L 370.22 818.46 L 363.82 815.57 L 357.48 812.54 L 351.20 809.39 L 344.99 806.10 L 338.84 802.68 L 332.77 799.14 L 326.76 795.47 L 320.83 791.67 L 314.98 787.75 L 309.20 783.71 L 303.51 779.55 L 297.90 775.27 L 292.38 770.88 L 286.95 766.37 L 281.61 761.75 L 276.37 757.01 L 271.22 752.17 L 266.17 747.22 L 261.22 742.16 L 256.38 737.00 L 251.64 731.74 L 247.01 726.38 L 242.49 720.92 L 238.08 715.37 L 233.78 709.72 L 229.60 703.99 L 225.54 698.16 L 221.59 692.25 L 217.77 686.26 L 214.07 680.19 L 210.49 674.04 L 207.04 667.81 L 203.72 661.51 L 200.53 655.14 L 197.47 648.70 L 194.54 642.20 L 191.74 635.64 L 189.08 629.01 L 186.56 622.33 L 184.17 615.59 L 181.92 608.81 L 179.81 601.97 L 177.84 595.09 L 176.02 588.17 L 174.33 581.20 L 172.80 574.20 L 171.40 567.17 L 170.15 560.10 L 169.05 553.01 L 168.09 545.89 L 167.28 538.75 L 166.61 531.58 L 166.10 524.41 L 165.73 517.22 L 165.51 510.02 L 165.45 502.82 L 165.53 495.61 L 165.75 488.40 L 166.13 481.19 L 166.66 473.99 L 167.34 466.79 L 168.17 459.61 L 169.14 452.44 L 170.27 445.29 L 171.54 438.16 L 172.96 431.06 L 174.53 423.98 L 176.24 416.93 L 178.11 409.92 L 180.11 402.94 L 182.27 396.00 L 184.56 389.10 L 187.01 382.25 L 189.59 375.45 L 192.32 368.69 L 195.18 362.00 L 198.19 355.35 L 201.34 348.77 L 204.62 342.25 L 208.04 335.80 L 211.59 329.41 L 215.28 323.10 L 219.10 316.86 L 223.05 310.70 L 227.13 304.62 L 231.34 298.62 L 235.67 292.70 L 240.13 286.87 L 244.71 281.13 L 249.41 275.49 L 254.23 269.94 L 259.17 264.49 L 264.22 259.13 L 269.38 253.89 L 274.66 248.74 L 280.04 243.70 L 285.53 238.78 L 291.13 233.96 L 296.82 229.26 L 302.62 224.68 L 308.51 220.21 L 314.50 215.86 L 320.58 211.64 L 326.75 207.54 L 333.01 203.57 L 339.35 199.72 L 345.78 196.01 L 352.29 192.42 L 358.87 188.97 L 365.52 185.66 L 372.25 182.48 L 379.05 179.44 L 385.91 176.54 L 392.83 173.78 L 399.82 171.17 L 406.86 168.69 L 413.96 166.37 L 421.11 164.18 L 428.30 162.15 L 435.54 160.26 L 442.83 158.53 L 450.15 156.94 L 457.51 155.51 L 464.90 154.22 L 472.32 153.09 L 479.77 152.12 L 487.24 151.30 L 494.73 150.63 L 502.24 150.12 L 509.76 149.76 L 517.29 149.56 L 524.83 149.51 L 532.38 149.62 L 539.92 149.89 L 547.46 150.32 L 555.00 150.90 L 562.53 151.63 L 570.05 152.53 L 577.55 153.58 L 585.03 154.79 L 592.49 156.15 L 599.93 157.67 L 607.34 159.34 L 614.71 161.17 L 622.05 163.15 L 629.36 165.28 L 636.62 167.57 L 643.84 170.01 L 651.01 172.60 L 658.13 175.34 L 665.20 178.23 L 672.21 181.26 L 679.16 184.45 L 686.05 187.77 L 692.87 191.25 L 699.62 194.86 L 706.30 198.62 L 712.91 202.52 L 719.44 206.56 L 725.88 210.73 L 732.25 215.05 L 738.52 219.49 L 744.71 224.07 L 750.80 228.78 L 756.81 233.61 L 762.71 238.57 L 768.51 243.66 L 774.21 248.87 L 779.80 254.21 L 785.29 259.66 L 790.66 265.22 L 795.93 270.90 L 801.07 276.69 L 806.10 282.60 L 811.01 288.61 L 815.80 294.72 L 820.46 300.94 L 824.99 307.25 L 829.40 313.67 L 755.59 359.79 L 752.59 354.62 L 749.47 349.51 L 746.25 344.46 L 742.93 339.47 L 739.49 334.55 L 735.95 329.70 L 732.31 324.92 L 728.56 320.22 L 724.72 315.59 L 720.77 311.03 L 716.73 306.56 L 712.59 302.16 L 708.35 297.86 L 704.03 293.63 L 699.61 289.50 L 695.10 285.45 L 690.50 281.50 L 685.82 277.64 L 681.06 273.87 L 676.21 270.20 L 671.29 266.64 L 666.28 263.17 L 661.20 259.80 L 656.05 256.54 L 650.82 253.39 L 645.53 250.34 L 640.17 247.40 L 634.75 244.57 L 629.26 241.86 L 623.71 239.25 L 618.10 236.76 L 612.44 234.39 L 606.73 232.13 L 600.96 230.00 L 595.15 227.98 L 589.29 226.08 L 583.39 224.30 L 577.45 222.65 L 571.47 221.12 L 565.45 219.71 L 559.41 218.43 L 553.33 217.27 L 547.22 216.24 L 541.09 215.34 L 534.93 214.56 L 528.76 213.92 L 522.57 213.40 L 516.36 213.01 L 510.15 212.75 L 503.92 212.62 L 497.69 212.62 L 491.46 212.75 L 485.22 213.02 L 478.99 213.41 L 472.76 213.93 L 466.54 214.58 L 460.33 215.37 L 454.13 216.28 L 447.95 217.33 L 441.78 218.50 L 435.64 219.80 L 429.52 221.24 L 423.43 222.80 L 417.37 224.49 L 411.34 226.31 L 405.35 228.25 L 399.39 230.32 L 393.47 232.52 L 387.60 234.84 L 381.77 237.29 L 375.99 239.85 L 370.26 242.55 L 364.58 245.36 L 358.97 248.29 L 353.40 251.34 L 347.90 254.51 L 342.47 257.80 L 337.10 261.20 L 331.79 264.71 L 326.56 268.34 L 321.41 272.08 L 316.32 275.93 L 311.32 279.88 L 306.40 283.95 L 301.56 288.11 L 296.80 292.39 L 292.13 296.76 L 287.55 301.23 L 283.07 305.80 L 278.67 310.47 L 274.37 315.23 L 270.17 320.08 L 266.07 325.02 L 262.07 330.05 L 258.17 335.17 L 254.38 340.37 L 250.70 345.65 L 247.12 351.01 L 243.66 356.45 L 240.31 361.96 L 237.07 367.55 L 233.95 373.20 L 230.94 378.93 L 228.05 384.71 L 225.29 390.57 L 222.64 396.48 L 220.12 402.45 L 217.72 408.47 L 215.44 414.55 L 213.30 420.68 L 211.27 426.85 L 209.38 433.07 L 207.62 439.33 L 205.99 445.63 L 204.48 451.97 L 203.12 458.34 L 201.88 464.75 L 200.78 471.18 L 199.81 477.63 L 198.97 484.11 L 198.27 490.61 L 197.71 497.13 L 197.28 503.66 L 196.99 510.20 L 196.84 516.75 L 196.82 523.31 L 196.94 529.87 L 197.20 536.42 L 197.60 542.98 L 198.13 549.53 L 198.80 556.07 L 199.61 562.60 L 200.55 569.11 L 201.63 575.61 L 202.85 582.08 L 204.20 588.54 L 205.69 594.96 L 207.31 601.36 L 209.07 607.72 L 210.96 614.06 L 212.99 620.35 L 215.14 626.60 L 217.43 632.81 L 219.85 638.97 L 222.40 645.09 L 225.08 651.15 L 227.89 657.16 L 230.82 663.11 L 233.88 669.00 L 237.06 674.83 L 240.37 680.60 L 243.80 686.30 L 247.34 691.92 L 251.01 697.48 L 254.79 702.95 L 258.69 708.36 L 262.71 713.68 L 266.83 718.91 L 271.07 724.07 L 275.42 729.13 L 279.87 734.11 L 284.43 738.99 L 289.09 743.78 L 293.86 748.47 L 298.72 753.07 L 303.68 757.56 L 308.74 761.95 L 313.89 766.24 L 319.13 770.41 L 324.46 774.48 L 329.87 778.44 L 335.37 782.29 L 340.96 786.02 L 346.62 789.63 L 352.36 793.13 L 358.17 796.51 L 364.05 799.76 L 370.01 802.89 L 376.03 805.90 L 382.11 808.78 L 388.26 811.54 L 394.47 814.17 L 400.73 816.66 L 407.04 819.03 L 413.41 821.26 L 419.82 823.36 L 426.28 825.33 L 432.79 827.16 L 439.33 828.85 L 445.90 830.41 L 452.51 831.82 L 459.16 833.10 L 465.82 834.24 L 472.52 835.24 L 479.23 836.10 L 485.97 836.82 L 492.72 837.40 L 499.48 837.83 L 506.26 838.12 L 513.04 838.27 L 519.82 838.27 L 526.60 838.14 L 533.38 837.86 L 540.16 837.43 L 546.93 836.87 L 553.68 836.16 L 560.42 835.30 L 567.15 834.31 L 573.85 833.17 L 580.53 831.89 L 587.18 830.47 L 593.80 828.90 L 600.38 827.20 L 606.93 825.35 L 613.44 823.37 L 619.91 821.25 L 626.33 818.98 L 632.70 816.58 L 639.02 814.04 L 645.28 811.35 Z" fill="url(#comet)"/>
<path d="M 792.4936038999301 137.355343516339 Q 818.4120678999301 310.809679516339 991.8664038999301 336.728143516339 Q 818.4120678999301 362.64660751633903 792.4936038999301 536.100943516339 Q 766.5751398999302 362.64660751633903 593.1208038999301 336.728143516339 Q 766.5751398999302 310.809679516339 792.4936038999301 137.355343516339 Z" fill="#33CC7A" opacity="0.5" filter="url(#midGlow)"/>
<path d="M 792.4936038999301 167.768143516339 Q 814.4584038999301 314.763343516339 961.4536038999302 336.728143516339 Q 814.4584038999301 358.692943516339 792.4936038999301 505.688143516339 Q 770.5288038999302 358.692943516339 623.5336038999301 336.728143516339 Q 770.5288038999302 314.763343516339 792.4936038999301 167.768143516339 Z" fill="url(#star)"/>
<path d="M 337.91999999999996 362.49600000000004 Q 344.04351999999994 403.47648000000004 385.02399999999994 409.6 Q 344.04351999999994 415.72352 337.91999999999996 456.704 Q 331.79648 415.72352 290.816 409.6 Q 331.79648 403.47648000000004 337.91999999999996 362.49600000000004 Z" fill="url(#star)" opacity="0.92"/>
<path d="M 460.8 265.216 Q 464.26112 288.37888000000004 487.42400000000004 291.84000000000003 Q 464.26112 295.30112 460.8 318.46400000000006 Q 457.33888 295.30112 434.176 291.84000000000003 Q 457.33888 288.37888000000004 460.8 265.216 Z" fill="#A8F5CB" opacity="0.6"/>
</svg>