<svg width="600" height="600" viewBox="0 0 600 600" xmlns="http://www.w3.org/2000/svg">
<defs>
  <linearGradient id="bg" x1="0" y1="0" x2="1" y2="1">
    <stop offset="0" stop-color="#262E44"/>
    <stop offset="0.55" stop-color="#161924"/>
    <stop offset="1" stop-color="#0C0E15"/>
  </linearGradient>
  <radialGradient id="glowbg" cx="0.68" cy="0.32" r="0.8">
    <stop offset="0" stop-color="#33CC7A" stop-opacity="0.14"/>
    <stop offset="0.55" stop-color="#33CC7A" stop-opacity="0.04"/>
    <stop offset="1" stop-color="#33CC7A" stop-opacity="0"/>
  </radialGradient>
  <linearGradient id="comet" gradientUnits="userSpaceOnUse"
      x1="383" y1="486" x2="473" y2="192">
    <stop offset="0" stop-color="#1C523A" stop-opacity="0"/>
    <stop offset="0.30" stop-color="#26A062" stop-opacity="0.45"/>
    <stop offset="0.65" stop-color="#33CC7A" stop-opacity="0.85"/>
    <stop offset="1" stop-color="#94F4BD" stop-opacity="1"/>
  </linearGradient>
  <radialGradient id="star" cx="0.5" cy="0.5" r="0.5">
    <stop offset="0" stop-color="#FFFFFF"/>
    <stop offset="0.42" stop-color="#D9FFE9"/>
    <stop offset="1" stop-color="#33CC7A"/>
  </radialGradient>
  <filter id="bigGlow" x="-80%" y="-80%" width="260%" height="260%"><feGaussianBlur stdDeviation="42.00000000000001"/></filter>
  <filter id="midGlow" x="-80%" y="-80%" width="260%" height="260%"><feGaussianBlur stdDeviation="13.2"/></filter>
</defs>

<circle cx="300.0" cy="300.0" r="203" stroke="#33CC7A" stroke-width="4.8" fill="none" opacity="0.10"/>
<circle cx="473" cy="192" r="78.0" fill="#33CC7A" opacity="0.30" filter="url(#bigGlow)"/>
<path d="M 383.54 487.62 L 379.62 489.33 L 375.68 490.97 L 371.70 492.52 L 367.70 494.00 L 363.66 495.40 L 359.60 496.71 L 355.50 497.94 L 351.39 499.10 L 347.25 500.16 L 343.09 501.15 L 338.91 502.04 L 334.71 502.86 L 330.49 503.58 L 326.26 504.22 L 322.02 504.78 L 317.76 505.25 L 313.49 505.63 L 309.22 505.92 L 304.94 506.13 L 300.65 506.25 L 296.37 506.28 L 292.08 506.22 L 287.79 506.07 L 283.50 505.84 L 279.22 505.52 L 274.95 505.11 L 270.68 504.61 L 266.42 504.02 L 262.18 503.35 L 257.94 502.59 L 253.73 501.74 L 249.53 500.81 L 245.34 499.79 L 241.18 498.68 L 237.04 497.49 L 232.93 496.21 L 228.84 494.84 L 224.78 493.39 L 220.74 491.86 L 216.74 490.25 L 212.77 488.55 L 208.83 486.77 L 204.93 484.90 L 201.07 482.96 L 197.25 480.94 L 193.47 478.84 L 189.73 476.66 L 186.04 474.40 L 182.39 472.06 L 178.78 469.65 L 175.23 467.17 L 171.73 464.61 L 168.28 461.98 L 164.88 459.27 L 161.54 456.50 L 158.26 453.65 L 155.03 450.74 L 151.87 447.76 L 148.76 444.71 L 145.71 441.60 L 142.73 438.43 L 139.82 435.19 L 136.97 431.89 L 134.19 428.53 L 131.47 425.12 L 128.83 421.64 L 126.26 418.12 L 123.76 414.53 L 121.33 410.90 L 118.98 407.21 L 116.70 403.48 L 114.50 399.69 L 112.38 395.86 L 110.34 391.98 L 108.37 388.07 L 106.49 384.11 L 104.69 380.10 L 102.97 376.07 L 101.33 371.99 L 99.78 367.88 L 98.31 363.73 L 96.92 359.56 L 95.63 355.35 L 94.42 351.12 L 93.29 346.86 L 92.26 342.57 L 91.31 338.27 L 90.45 333.94 L 89.68 329.59 L 89.00 325.23 L 88.41 320.85 L 87.91 316.45 L 87.51 312.05 L 87.19 307.63 L 86.96 303.21 L 86.83 298.78 L 86.79 294.35 L 86.84 289.91 L 86.98 285.48 L 87.21 281.04 L 87.54 276.61 L 87.95 272.19 L 88.46 267.77 L 89.06 263.36 L 89.75 258.96 L 90.54 254.57 L 91.41 250.20 L 92.38 245.85 L 93.43 241.51 L 94.58 237.20 L 95.81 232.90 L 97.14 228.63 L 98.55 224.39 L 100.05 220.17 L 101.64 215.99 L 103.32 211.83 L 105.08 207.71 L 106.93 203.63 L 108.87 199.58 L 110.89 195.57 L 112.99 191.60 L 115.18 187.67 L 117.45 183.78 L 119.80 179.94 L 122.23 176.15 L 124.74 172.41 L 127.33 168.72 L 129.99 165.08 L 132.74 161.49 L 135.55 157.96 L 138.45 154.49 L 141.41 151.08 L 144.45 147.72 L 147.56 144.43 L 150.73 141.20 L 153.98 138.03 L 157.29 134.94 L 160.67 131.90 L 164.11 128.94 L 167.62 126.05 L 171.18 123.23 L 174.81 120.48 L 178.49 117.81 L 182.23 115.21 L 186.03 112.69 L 189.88 110.24 L 193.78 107.88 L 197.74 105.59 L 201.74 103.39 L 205.79 101.26 L 209.88 99.22 L 214.02 97.27 L 218.20 95.40 L 222.42 93.61 L 226.69 91.92 L 230.98 90.31 L 235.32 88.79 L 239.68 87.35 L 244.08 86.01 L 248.51 84.76 L 252.96 83.60 L 257.44 82.53 L 261.95 81.56 L 266.47 80.67 L 271.02 79.88 L 275.59 79.19 L 280.17 78.59 L 284.77 78.08 L 289.37 77.67 L 293.99 77.36 L 298.62 77.14 L 303.26 77.01 L 307.89 76.98 L 312.54 77.05 L 317.18 77.22 L 321.82 77.48 L 326.46 77.84 L 331.09 78.29 L 335.71 78.84 L 340.33 79.49 L 344.93 80.23 L 349.52 81.07 L 354.10 82.00 L 358.65 83.03 L 363.19 84.16 L 367.71 85.37 L 372.20 86.69 L 376.67 88.09 L 381.11 89.59 L 385.52 91.19 L 389.90 92.87 L 394.25 94.65 L 398.57 96.52 L 402.84 98.48 L 407.08 100.53 L 411.28 102.66 L 415.43 104.89 L 419.54 107.20 L 423.61 109.60 L 427.62 112.08 L 431.59 114.65 L 435.50 117.30 L 439.36 120.04 L 443.17 122.85 L 446.92 125.75 L 450.61 128.73 L 454.24 131.78 L 457.81 134.91 L 461.32 138.12 L 464.76 141.40 L 468.14 144.75 L 471.44 148.17 L 474.68 151.67 L 477.85 155.23 L 480.94 158.86 L 483.96 162.56 L 486.91 166.32 L 489.78 170.15 L 492.57 174.03 L 495.28 177.98 L 449.86 206.36 L 448.02 203.17 L 446.10 200.03 L 444.12 196.92 L 442.07 193.86 L 439.96 190.83 L 437.78 187.84 L 435.54 184.90 L 433.24 182.01 L 430.87 179.16 L 428.44 176.36 L 425.96 173.60 L 423.41 170.90 L 420.80 168.25 L 418.14 165.65 L 415.42 163.11 L 412.65 160.62 L 409.82 158.19 L 406.94 155.81 L 404.01 153.50 L 401.03 151.24 L 398.00 149.04 L 394.92 146.91 L 391.79 144.84 L 388.62 142.83 L 385.41 140.89 L 382.15 139.02 L 378.86 137.21 L 375.52 135.47 L 372.14 133.80 L 368.73 132.20 L 365.28 130.67 L 361.80 129.21 L 358.28 127.82 L 354.73 126.50 L 351.16 125.26 L 347.55 124.09 L 343.92 123.00 L 340.27 121.98 L 336.59 121.04 L 332.89 120.17 L 329.17 119.38 L 325.43 118.67 L 321.67 118.04 L 317.90 117.48 L 314.11 117.01 L 310.31 116.61 L 306.50 116.29 L 302.69 116.05 L 298.86 115.89 L 295.03 115.81 L 291.20 115.81 L 287.36 115.89 L 283.52 116.05 L 279.69 116.30 L 275.86 116.62 L 272.03 117.02 L 268.21 117.50 L 264.40 118.06 L 260.59 118.71 L 256.80 119.43 L 253.02 120.23 L 249.26 121.11 L 245.51 122.07 L 241.78 123.11 L 238.07 124.23 L 234.38 125.43 L 230.72 126.70 L 227.08 128.05 L 223.46 129.48 L 219.88 130.99 L 216.32 132.57 L 212.80 134.22 L 209.31 135.95 L 205.85 137.76 L 202.43 139.63 L 199.04 141.58 L 195.70 143.61 L 192.39 145.70 L 189.13 147.86 L 185.91 150.09 L 182.74 152.39 L 179.61 154.76 L 176.54 157.19 L 173.51 159.69 L 170.53 162.26 L 167.60 164.89 L 164.73 167.58 L 161.91 170.33 L 159.15 173.14 L 156.45 176.01 L 153.80 178.94 L 151.22 181.92 L 148.70 184.96 L 146.23 188.06 L 143.84 191.21 L 141.51 194.41 L 139.24 197.66 L 137.04 200.95 L 134.91 204.30 L 132.85 207.69 L 130.85 211.13 L 128.93 214.61 L 127.08 218.13 L 125.31 221.69 L 123.60 225.29 L 121.98 228.93 L 120.42 232.60 L 118.95 236.31 L 117.55 240.04 L 116.23 243.81 L 114.98 247.61 L 113.82 251.44 L 112.73 255.29 L 111.73 259.17 L 110.81 263.07 L 109.96 266.99 L 109.20 270.93 L 108.52 274.88 L 107.93 278.86 L 107.41 282.84 L 106.98 286.84 L 106.64 290.85 L 106.38 294.87 L 106.20 298.89 L 106.10 302.92 L 106.09 306.96 L 106.17 310.99 L 106.32 315.03 L 106.57 319.06 L 106.90 323.09 L 107.31 327.11 L 107.80 331.13 L 108.38 335.14 L 109.05 339.13 L 109.80 343.12 L 110.63 347.09 L 111.55 351.04 L 112.55 354.98 L 113.63 358.89 L 114.79 362.79 L 116.04 366.66 L 117.36 370.51 L 118.77 374.33 L 120.26 378.12 L 121.83 381.88 L 123.48 385.61 L 125.20 389.31 L 127.01 392.97 L 128.89 396.59 L 130.85 400.18 L 132.88 403.73 L 134.99 407.23 L 137.17 410.69 L 139.43 414.11 L 141.76 417.48 L 144.16 420.80 L 146.63 424.08 L 149.17 427.30 L 151.77 430.47 L 154.45 433.59 L 157.19 436.65 L 159.99 439.65 L 162.86 442.60 L 165.79 445.49 L 168.78 448.31 L 171.84 451.08 L 174.95 453.78 L 178.11 456.41 L 181.34 458.99 L 184.62 461.49 L 187.95 463.92 L 191.33 466.29 L 194.77 468.58 L 198.25 470.81 L 201.78 472.96 L 205.36 475.04 L 208.98 477.04 L 212.64 478.97 L 216.35 480.82 L 220.09 482.59 L 223.87 484.29 L 227.69 485.90 L 231.54 487.44 L 235.43 488.89 L 239.34 490.27 L 243.29 491.56 L 247.26 492.77 L 251.26 493.89 L 255.29 494.94 L 259.33 495.89 L 263.40 496.77 L 267.49 497.55 L 271.59 498.26 L 275.71 498.87 L 279.84 499.40 L 283.99 499.84 L 288.14 500.19 L 292.30 500.46 L 296.47 500.64 L 300.64 500.73 L 304.81 500.74 L 308.98 500.65 L 313.16 500.48 L 317.32 500.22 L 321.49 499.87 L 325.64 499.43 L 329.79 498.91 L 333.93 498.29 L 338.05 497.59 L 342.16 496.81 L 346.25 495.93 L 350.32 494.97 L 354.38 493.92 L 358.41 492.79 L 362.41 491.57 L 366.39 490.26 L 370.34 488.87 L 374.26 487.39 L 378.15 485.82 L 382.00 484.17 Z" fill="url(#comet)"/>
<path d="M 472.56930708687116 69.50572892118512 Q 488.51523708687114 176.22079892118512 595.2303070868711 192.16672892118513 Q 488.51523708687114 208.11265892118513 472.56930708687116 314.8277289211851 Q 456.6233770868712 208.11265892118513 349.90830708687116 192.16672892118513 Q 456.6233770868712 176.22079892118512 472.56930708687116 69.50572892118512 Z" fill="#33CC7A" opacity="0.5" filter="url(#midGlow)"/>
<path d="M 472.56930708687116 88.21672892118512 Q 486.0828070868712 178.65322892118513 576.5193070868712 192.16672892118513 Q 486.0828070868712 205.68022892118512 472.56930708687116 296.11672892118514 Q 459.05580708687114 205.68022892118512 368.6193070868712 192.16672892118513 Q 459.05580708687114 178.65322892118513 472.56930708687116 88.21672892118512 Z" fill="url(#star)"/>
<path d="M 192.89999999999998 208.02 Q 196.6674 233.2326 221.87999999999997 237.0 Q 196.6674 240.7674 192.89999999999998 265.98 Q 189.13259999999997 240.7674 163.92 237.0 Q 189.13259999999997 233.2326 192.89999999999998 208.02 Z" fill="url(#star)" opacity="0.92"/>
<path d="M 268.5 148.17 Q 270.6294 162.42059999999998 284.88 164.54999999999998 Q 270.6294 166.6794 268.5 180.92999999999998 Q 266.3706 166.6794 252.12 164.54999999999998 Q 266.3706 162.42059999999998 268.5 148.17 Z" fill="#A8F5CB" opacity="0.6"/>
</svg>